HIERARCHY
ROOT Bip001_Pelvis
{
  OFFSET 34.4345 95.6767 -26.8758
  CHANNELS 6 Xposition Yposition Zposition Zrotation Xrotation Yrotation
  JOINT Bip001_Spine
  {
    OFFSET 1.4188e-005 10.2191 -0.0116013
    CHANNELS 3 Zrotation Xrotation Yrotation
    JOINT Bip001_L_Thigh
    {
      OFFSET 11.0458 -10.2192 0.0116197
      CHANNELS 3 Zrotation Xrotation Yrotation
      JOINT Bip001_L_Calf
      {
        OFFSET -0.707118 -44.0221 0.360014
        CHANNELS 3 Zrotation Xrotation Yrotation
        JOINT Bip001_L_Foot
        {
          OFFSET -0.651902 -40.5938 -3.56146
          CHANNELS 3 Zrotation Xrotation Yrotation
          JOINT Bip001_L_Toe0
          {
            OFFSET 0.0530839 -10.2181 13.1504
            CHANNELS 3 Zrotation Xrotation Yrotation
            End Site
            {
              OFFSET -1.02532e-005 0 7.55606
            }
          }
        }
      }
    }
    JOINT Bip001_R_Thigh
    {
      OFFSET -11.0458 -10.2191 0.0115893
      CHANNELS 3 Zrotation Xrotation Yrotation
      JOINT Bip001_R_Calf
      {
        OFFSET 0.706994 -44.0221 0.35984
        CHANNELS 3 Zrotation Xrotation Yrotation
        JOINT Bip001_R_Foot
        {
          OFFSET 0.651786 -40.5938 -3.5613
          CHANNELS 3 Zrotation Xrotation Yrotation
          JOINT Bip001_R_Toe0
          {
            OFFSET -0.0531479 -10.2181 13.1504
            CHANNELS 3 Zrotation Xrotation Yrotation
            End Site
            {
              OFFSET -1.02894e-005 0 7.55606
            }
          }
        }
      }
    }
    JOINT Bip001_Spine1
    {
      OFFSET 1.87041e-005 14.5736 1.08638
      CHANNELS 3 Zrotation Xrotation Yrotation
      JOINT Bip001_Spine2
      {
        OFFSET 2.24614e-005 14.5058 -1.69078
        CHANNELS 3 Zrotation Xrotation Yrotation
        JOINT Bip001_Neck
        {
          OFFSET 2.20278e-005 15.3945 -0.489414
          CHANNELS 3 Zrotation Xrotation Yrotation
          JOINT Bip001_L_Clavicle
          {
            OFFSET 6.06036 -0.000579998 0.00836775
            CHANNELS 3 Zrotation Xrotation Yrotation
            JOINT Bip001_L_UpperArm
            {
              OFFSET 11.5509 -0.0600302 0.00193952
              CHANNELS 3 Zrotation Xrotation Yrotation
              JOINT Bip001_L_Forearm
              {
                OFFSET 25.9523 0.0806089 -2.15551
                CHANNELS 3 Zrotation Xrotation Yrotation
                JOINT Bip001_L_Hand
                {
                  OFFSET 32.2475 0.153767 1.63968
                  CHANNELS 3 Zrotation Xrotation Yrotation
                  JOINT Bip001_L_Finger0
                  {
                    OFFSET 6.04639 -2.20976 5.90322
                    CHANNELS 3 Zrotation Xrotation Yrotation
                    End Site
                    {
                      OFFSET 4.22375 -1.43895 0.606485
                    }
                  }
                  JOINT Bip001_L_Finger1
                  {
                    OFFSET 11.0826 -0.704819 -0.198153
                    CHANNELS 3 Zrotation Xrotation Yrotation
                    End Site
                    {
                      OFFSET 6.20027 -0.397518 -0.0787166
                    }
                  }
                }
              }
            }
          }
          JOINT Bip001_R_Clavicle
          {
            OFFSET -6.06037 -0.000563197 0.00835105
            CHANNELS 3 Zrotation Xrotation Yrotation
            JOINT Bip001_R_UpperArm
            {
              OFFSET -11.5509 -0.0599978 0.00190698
              CHANNELS 3 Zrotation Xrotation Yrotation
              JOINT Bip001_R_Forearm
              {
                OFFSET -25.9523 0.0806822 -2.15589
                CHANNELS 3 Zrotation Xrotation Yrotation
                JOINT Bip001_R_Hand
                {
                  OFFSET -32.2475 0.153859 1.63989
                  CHANNELS 3 Zrotation Xrotation Yrotation
                  JOINT Bip001_R_Finger0
                  {
                    OFFSET -6.04641 -2.20976 5.90317
                    CHANNELS 3 Zrotation Xrotation Yrotation
                    End Site
                    {
                      OFFSET -4.22376 -1.43895 0.60647
                    }
                  }
                  JOINT Bip001_R_Finger1
                  {
                    OFFSET -11.0826 -0.704794 -0.198182
                    CHANNELS 3 Zrotation Xrotation Yrotation
                    End Site
                    {
                      OFFSET -6.20028 -0.397504 -0.0787333
                    }
                  }
                }
              }
            }
          }
          JOINT Bip001_Head
          {
            OFFSET 1.09673e-005 11.2744 2.05948
            CHANNELS 3 Zrotation Xrotation Yrotation
            End Site
            {
              OFFSET 2.89576e-005 20.8808 -2.77728e-005
            }
          }
        }
      }
    }
  }
}
MOTION
Frames:	12
Frame Time:	0.04
32.7587 95.9939 -29.2402 -0.255489 -0.925737 -4.13087 0.0554094 2.45218 0.190564 5.59485 -1.90103 8.27462 0.33212 6.25006 -0.706328 -0.635554 -4.04768 0.03526 0.893112 -4.28564 -0.393615 -4.26334 -3.3416 -3.85725 0.622095 8.18029 0.0186612 -3.84645 -7.94639 5.01362 2.02473 -7.03895 2.27575 0.102338 4.90454 0.378275 0.102515 4.90454 0.378801 0.986176 -3.46742 0.0681516 -23.646 6.51375 -6.58573 -47.9597 38.425 -3.69632 11.8088 -2.92162 -22.6991 8.64251 -0.325677 -7.02904 6.36111e-015 9.54166e-015 -1.27222e-014 1.05934e-030 9.54167e-015 -6.36111e-015 24.9017 11.2639 20.1953 59.3814 30.3846 -9.00725 -17.431 13.2934 10.6866 28.5998 -2.31657 11.0309 1.59028e-015 0 -0 -0 -3.18056e-015 -0 -1.78481 -2.50859 0.69225 
32.7011 95.9624 -29.3607 -0.38571 -0.947447 -3.60136 0.0900591 2.51018 0.200575 5.76814 -2.39026 9.17863 0.43367 6.80421 -2.26404 -0.0565702 -3.93507 0.031206 1.13584 -4.74773 -0.589493 -4.07138 -3.39813 -3.72952 0.640748 8.27804 0.0106346 -4.11801 -7.9498 4.4075 2.0704 -7.16737 2.30125 0.170223 5.02068 0.397877 0.170881 5.02067 0.397883 0.919614 -3.55564 0.0944929 -23.8594 6.55031 -6.30297 -47.7902 38.6006 -3.67989 11.9466 -3.54751 -23.5033 7.70071 -0.0727789 -6.23865 -3.18055e-015 0 -3.18055e-015 -6.36111e-015 3.18056e-015 -0 24.7209 11.3603 20.4191 61.4359 34.2537 -10.7188 -19.4648 9.30907 10.9196 23.6282 -3.7105 9.25991 4.77083e-015 6.36111e-015 -1.59028e-015 1.59028e-015 3.18056e-015 -2.38542e-015 -1.84391 -2.60212 0.706944 
32.6445 95.9265 -29.4908 -0.338293 -0.894205 -2.76666 0.05852 2.55655 0.150669 5.89839 -2.9875 9.28365 0.386907 7.30834 -3.22168 0.150005 -3.98657 0.0188333 1.09678 -4.84573 -0.495975 -3.95867 -3.70705 -3.16155 0.707839 8.80666 -0.0855218 -4.5806 -8.02877 3.24752 2.10291 -7.25363 2.31198 0.110568 5.11326 0.299194 0.110522 5.11326 0.299177 1.06382 -3.58346 0.1315 -24.2821 6.48066 -5.859 -47.5838 38.8063 -3.44297 12.2162 -3.41365 -24.3971 7.25945 0.195762 -6.06115 5.29669e-031 -9.54166e-015 3.18055e-015 3.18055e-015 -1.27222e-014 -0 24.8654 11.531 20.6168 62.1737 35.6643 -11.7226 -21.6914 8.90548 11.8513 14.2671 -4.81411 7.83297 7.95139e-016 0 1.98785e-016 7.95139e-016 3.18056e-015 5.96354e-016 -1.84924 -2.8884 0.784038 
32.5859 95.8989 -29.5702 -0.137381 -0.911131 -1.79557 -0.00491836 2.55896 0.102555 5.88258 -3.29822 9.38362 0.314575 7.40987 -4.21616 0.56621 -3.63129 0.0103879 1.30116 -5.1942 -0.734834 -3.973 -3.86389 -1.92913 0.936556 9.34097 -0.258459 -5.21639 -8.05405 1.43417 2.15188 -7.3954 2.3452 -0.0144478 5.11793 0.205636 -0.0144478 5.11794 0.205638 1.44865 -3.3072 -0.0548092 -24.5477 6.09298 -5.65206 -48.0531 39.4327 -2.8968 12.9354 -1.47532 -24.606 8.41744 0.0163393 -6.0537 -3.18055e-015 -6.36111e-015 -0 -0 -6.36111e-015 -0 24.8147 11.3301 20.5468 62.3966 35.5595 -11.8689 -22.9901 7.75824 12.3853 6.33389 -5.06661 6.14457 7.95139e-016 0 -0 1.59028e-015 0 -0 -1.98001 -3.40211 0.722576 
32.5605 95.8833 -29.5827 0.149057 -0.884244 -1.02715 -0.0689254 2.50304 0.0297402 5.69801 -3.23354 9.34672 0.185564 6.93086 -4.9264 1.23402 -2.85717 -0.0147483 1.57274 -5.69597 -0.954954 -4.11199 -3.84506 -0.749152 1.18287 9.57528 -0.567569 -5.68905 -8.08594 -0.0612555 2.18913 -7.50449 2.37106 -0.138736 5.00605 0.0625018 -0.138735 5.00604 0.0625016 1.96839 -3.15792 -0.245313 -24.8848 5.74188 -5.15576 -48.8665 40.3544 -2.25875 13.7719 0.270363 -24.3864 7.88637 0.150484 -6.18298 -3.18055e-015 6.36111e-015 -1.59028e-015 1.76556e-031 6.36111e-015 -1.59028e-015 24.3424 11.1063 20.2206 61.8157 32.9959 -10.9771 -23.8892 9.24871 13.3968 1.66758 -4.37408 5.6834 3.18055e-015 0 -1.59028e-015 0 0 -1.59028e-015 -2.51792 -3.28042 0.773813 
32.5404 95.9062 -29.5734 0.25177 -0.817255 -0.458527 -0.0941497 2.44286 -0.0600851 5.72059 -3.2976 9.40573 0.0937914 6.86297 -5.35098 0.807432 -3.05597 -0.00775071 1.36522 -5.31931 -0.803944 -4.09292 -3.83755 -0.310201 1.21551 9.70152 -0.646753 -5.9016 -7.95719 -0.839388 2.20323 -7.53816 2.36583 -0.18722 4.88576 -0.116138 -0.187221 4.88578 -0.116139 2.0994 -2.91841 -0.216858 -24.9925 5.40203 -4.83341 -49.3612 41.3462 -1.82428 14.2628 1.69941 -24.0329 6.85303 0.912028 -5.87525 3.18055e-015 0 -0 0 6.36111e-015 -0 24.2442 10.8865 20.2912 61.2805 31.9429 -10.1422 -23.9364 10.438 13.7843 -0.965986 -4.66462 5.77056 1.59028e-015 -9.54166e-015 -1.59028e-015 -8.82782e-032 -6.36111e-015 -7.95139e-016 -2.64177 -3.33736 0.875461 
32.5421 95.9068 -29.5125 0.335585 -0.799547 -0.00641565 -0.101068 2.4304 -0.129347 5.63096 -3.25421 9.06699 0.0556648 6.63837 -5.41851 1.06991 -2.75182 -0.0147544 1.44963 -5.47983 -0.880444 -4.10581 -3.7801 -0.502785 1.11546 9.82395 -0.638688 -5.99332 -7.99919 -0.990008 2.22486 -7.60637 2.40075 -0.195011 4.85059 -0.254252 -0.195222 4.8506 -0.254647 1.6928 -3.07962 -0.0704663 -24.6743 5.55661 -4.67501 -49.372 42.3132 -1.92629 14.5942 3.63029 -23.2611 6.0146 1.04664 -5.9418 -6.36111e-015 3.18055e-015 -0 -6.36111e-015 3.18056e-015 -1.59028e-015 24.723 11.15 20.5969 61.5275 32.2238 -10.443 -24.1242 8.31538 13.6304 -0.733584 -5.54464 5.55 4.77083e-015 6.36111e-015 -0 4.77083e-015 6.36111e-015 -7.95139e-016 -2.19312 -3.18918 0.829271 
32.5631 95.887 -29.4323 0.464654 -0.847347 0.225644 -0.125774 2.4354 -0.117479 5.53964 -3.10958 9.43139 0.00436468 6.4431 -5.98351 1.25098 -2.61596 -0.0210414 1.56464 -5.66056 -0.988128 -4.1943 -3.75685 -0.636831 1.09097 10.0766 -0.52246 -6.15817 -8.16466 -1.21775 2.25661 -7.70206 2.42578 -0.247025 4.87107 -0.229944 -0.247012 4.87107 -0.22992 1.89751 -3.19107 -0.0562797 -24.7397 5.66996 -4.7079 -49.4473 42.9124 -2.06141 14.7826 5.39834 -22.7696 5.23055 1.38818 -6.06986 3.18055e-015 6.36111e-015 -1.59028e-015 6.36111e-015 0 -1.59028e-015 24.5095 11.2876 20.6708 61.7562 32.1682 -10.4667 -23.9368 6.77355 13.3578 0.134178 -5.82461 5.46791 3.18055e-015 0 -0 3.18055e-015 3.18056e-015 7.95139e-016 -2.24797 -3.63146 0.897386 
32.598 95.8717 -29.3636 0.609929 -0.905746 0.370691 -0.158217 2.43735 -0.0904573 5.42739 -2.99369 9.60955 -0.0148688 6.3626 -6.26496 1.17679 -2.67788 -0.0223383 1.57281 -5.65792 -1.00469 -4.33144 -3.73483 -0.697053 1.10266 10.3141 -0.551617 -6.24892 -8.32754 -1.28436 2.28669 -7.78673 2.44327 -0.313132 4.87614 -0.174843 -0.313235 4.87614 -0.17461 2.1213 -3.34715 -0.163912 -24.7897 5.84425 -4.87159 -49.6476 43.1021 -2.01596 14.6128 6.29347 -22.3696 4.68396 1.55952 -6.1709 3.18055e-015 3.18055e-015 -0 3.18055e-015 3.18056e-015 1.59028e-015 24.3853 11.4424 20.5314 61.8195 31.8554 -10.3859 -23.8351 6.83937 13.113 0.846814 -6.17383 5.9848 -1.59028e-015 -3.18055e-015 -0 8.82782e-032 -6.36111e-015 7.95139e-016 -2.38963 -3.78355 0.866112 
32.6585 95.8608 -29.2573 0.738542 -1.01077 0.455597 -0.171124 2.44257 -0.115497 5.23628 -2.79678 9.57521 0.0295543 6.26556 -6.28124 1.28014 -2.67016 -0.0231429 1.61657 -5.65485 -1.02047 -4.4934 -3.60881 -1.07834 1.04326 10.4708 -0.497381 -6.21035 -8.51823 -1.03314 2.30858 -7.86475 2.47391 -0.337792 4.88549 -0.223991 -0.337791 4.88548 -0.223991 1.98048 -3.56895 -0.102361 -24.5476 6.12916 -5.06809 -50.1384 43.0164 -1.63164 14.342 6.18135 -22.0694 4.73829 1.40777 -6.12115 3.18055e-015 3.18055e-015 -1.59028e-015 3.18055e-015 6.36111e-015 -0 24.6472 11.5979 20.2587 61.9804 32.3398 -10.4093 -23.4333 7.15092 12.3802 1.12053 -6.99038 5.8943 -1.59028e-015 9.54166e-015 -0 -8.82782e-032 6.36111e-015 7.95139e-016 -2.29109 -3.61802 0.874706 
32.798 95.847 -29.0846 0.986387 -1.13595 0.366548 -0.200215 2.44581 -0.16442 4.77919 -2.35686 9.85036 0.273217 5.84793 -6.51779 1.26549 -2.55376 -0.0235374 1.5955 -5.72911 -0.991622 -4.90197 -3.46132 -1.8854 1.02723 10.6793 -0.429571 -6.02713 -8.89599 -0.251407 2.31414 -7.91039 2.49494 -0.393951 4.89217 -0.320699 -0.393951 4.89216 -0.320698 1.67411 -3.70447 0.139749 -23.9644 6.36312 -5.33363 -51.016 42.8762 -1.2156 13.9785 5.24989 -21.6432 4.99367 1.13639 -6.00277 3.18055e-015 6.36111e-015 -1.59028e-015 3.18055e-015 3.18056e-015 -0 25.0829 11.5885 19.8297 62.1455 32.5239 -10.5421 -23.237 6.8163 11.8044 3.03705 -7.3125 5.75838 1.59028e-015 0 -7.95139e-016 3.18055e-015 0 -1.59028e-015 -2.00027 -3.571 0.968864 
32.7651 95.8505 -28.9836 0.900688 -1.00788 -0.0353044 -0.169917 2.40108 -0.145826 4.89471 -2.28281 9.8746 0.161648 5.8468 -6.0943 1.22987 -2.70774 -0.0214402 1.6024 -5.64795 -1.00265 -4.83294 -3.49985 -1.72925 1.00866 10.5526 -0.421353 -5.98454 -8.8764 -0.0855085 2.32009 -7.93233 2.53011 -0.335321 4.80261 -0.284589 -0.334727 4.80261 -0.2847 1.46025 -3.93616 0.296862 -23.3966 6.69757 -5.69773 -51.9593 42.4118 -0.771594 13.5588 4.04287 -21.4292 5.33251 1.02209 -5.71093 -3.18055e-015 0 1.59028e-015 -6.36111e-015 -3.18056e-015 1.59028e-015 25.4439 11.5734 19.0748 62.1409 32.4424 -10.6754 -23.1506 6.6342 11.5301 4.83692 -7.13428 5.67605 -1.59028e-015 6.36111e-015 7.95139e-016 7.95139e-016 3.18056e-015 -7.95139e-016 -1.71887 -3.58315 1.00001 
